<?xml version="1.0" encoding="UTF-8" standalone="no"?>
<svg
   xmlns:dc="http://purl.org/dc/elements/1.1/"
   xmlns:cc="http://creativecommons.org/ns#"
   xmlns:rdf="http://www.w3.org/1999/02/22-rdf-syntax-ns#"
   xmlns:svg="http://www.w3.org/2000/svg"
   xmlns="http://www.w3.org/2000/svg"
   xmlns:sodipodi="http://sodipodi.sourceforge.net/DTD/sodipodi-0.dtd"
   xmlns:inkscape="http://www.inkscape.org/namespaces/inkscape"
   fill="#000000"
   height="48"
   viewBox="0 0 24 24"
   width="48"
   id="svg2"
   version="1.1"
   inkscape:version="0.91 r13725"
   sodipodi:docname="person.svg">
  <metadata
     id="metadata12">
    <rdf:RDF>
      <cc:Work
         rdf:about="">
        <dc:format>image/svg+xml</dc:format>
        <dc:type
           rdf:resource="http://purl.org/dc/dcmitype/StillImage" />
      </cc:Work>
    </rdf:RDF>
  </metadata>
  <defs
     id="defs10" />
  <sodipodi:namedview
     pagecolor="#ffffff"
     bordercolor="#666666"
     borderopacity="1"
     objecttolerance="10"
     gridtolerance="10"
     guidetolerance="10"
     inkscape:pageopacity="0"
     inkscape:pageshadow="2"
     inkscape:window-width="3840"
     inkscape:window-height="2096"
     id="namedview8"
     showgrid="false"
     inkscape:zoom="4.9166667"
     inkscape:cx="-115.83051"
     inkscape:cy="23.186441"
     inkscape:window-x="0"
     inkscape:window-y="27"
     inkscape:window-maximized="1"
     inkscape:current-layer="svg2" />
  <path
     d="m 12.101695,5.4627119 c 1.513898,0 2.740678,1.2267797 2.740678,2.740678 0,1.5138983 -1.22678,2.7406781 -2.740678,2.7406781 -1.513898,0 -2.740678,-1.2267798 -2.740678,-2.7406781 0,-1.5138983 1.22678,-2.740678 2.740678,-2.740678 m 0,11.7457631 c 3.876102,0 7.961017,1.905424 7.961017,2.740678 l 0,1.435593 -15.922034,0 0,-1.435593 c 0,-0.835254 4.084915,-2.740678 7.961017,-2.740678 m 0,-14.2254241 c -2.884237,0 -5.220339,2.3361016 -5.220339,5.220339 0,2.8842371 2.336102,5.2203391 5.220339,5.2203391 2.884237,0 5.220339,-2.336102 5.220339,-5.2203391 0,-2.8842374 -2.336102,-5.220339 -5.220339,-5.220339 z m 0,11.7457631 c -3.484576,0 -10.440678,1.748813 -10.440678,5.220339 l 0,3.915254 20.881356,0 0,-3.915254 c 0,-3.471526 -6.956102,-5.220339 -10.440678,-5.220339 z"
     id="path4"
     inkscape:connector-curvature="0"
     style="fill:#000000;fill-opacity:1" />
  <path
     d="m -3.559322,-2.2372881 31.322034,0 0,31.3220341 -31.322034,0 z"
     id="path6"
     inkscape:connector-curvature="0"
     style="fill:none" />
</svg>
