<?xml version="1.0" encoding="UTF-8" standalone="no"?>
<svg
   xmlns:dc="http://purl.org/dc/elements/1.1/"
   xmlns:cc="http://creativecommons.org/ns#"
   xmlns:rdf="http://www.w3.org/1999/02/22-rdf-syntax-ns#"
   xmlns:svg="http://www.w3.org/2000/svg"
   xmlns="http://www.w3.org/2000/svg"
   xmlns:sodipodi="http://sodipodi.sourceforge.net/DTD/sodipodi-0.dtd"
   xmlns:inkscape="http://www.inkscape.org/namespaces/inkscape"
   fill="#000000"
   height="24"
   viewBox="0 0 24 24"
   width="24"
   id="svg2"
   version="1.1"
   inkscape:version="0.91 r13725"
   sodipodi:docname="biosphere.svg">
  <metadata
     id="metadata12">
    <rdf:RDF>
      <cc:Work
         rdf:about="">
        <dc:format>image/svg+xml</dc:format>
        <dc:type
           rdf:resource="http://purl.org/dc/dcmitype/StillImage" />
      </cc:Work>
    </rdf:RDF>
  </metadata>
  <defs
     id="defs10" />
  <sodipodi:namedview
     pagecolor="#ffffff"
     bordercolor="#666666"
     borderopacity="1"
     objecttolerance="10"
     gridtolerance="10"
     guidetolerance="10"
     inkscape:pageopacity="0"
     inkscape:pageshadow="2"
     inkscape:window-width="3840"
     inkscape:window-height="2096"
     id="namedview8"
     showgrid="false"
     inkscape:zoom="39.333333"
     inkscape:cx="12.337167"
     inkscape:cy="7.1070328"
     inkscape:window-x="0"
     inkscape:window-y="27"
     inkscape:window-maximized="1"
     inkscape:current-layer="svg2" />
  <path
     d="m -2.1355938,-2.0847461 28.2711878,0 0,28.2711891 -28.2711878,0 z"
     id="path4"
     inkscape:connector-curvature="0"
     style="fill:none" />
  <path
     d="m 12.000002,0.27118647 c -6.5023755,0 -11.77966308,5.27728783 -11.77966308,11.77966253 0,6.502374 5.27728758,11.779662 11.77966308,11.779662 6.502373,0 11.779661,-5.277288 11.779661,-11.779662 0,-6.5023747 -5.277288,-11.77966253 -11.779661,-11.77966253 z M 10.822035,21.392121 c -4.6529678,-0.577203 -8.2457636,-4.53517 -8.2457636,-9.341272 0,-0.730338 0.094235,-1.425338 0.2473722,-2.1085614 l 5.6424578,5.6424604 0,1.177967 c 0,1.295761 1.06017,2.355931 2.3559336,2.355931 l 0,2.273475 z m 8.127967,-2.992034 C 18.64373,17.445935 17.772035,16.762715 16.711866,16.762715 l -1.177966,0 0,-3.533899 c 0,-0.647881 -0.530086,-1.177967 -1.177967,-1.177967 l -7.0677974,0 0,-2.3559344 2.3559315,0 c 0.6478829,0 1.1779679,-0.5300843 1.1779679,-1.1779657 l 0,-2.3559322 2.355932,0 c 1.295763,0 2.355933,-1.0601694 2.355933,-2.3559322 l 0,-0.4829661 c 3.45144,1.4017797 5.88983,4.7825424 5.88983,8.7287306 0,2.45017 -0.942372,4.676526 -2.473728,6.349238 z"
     id="path6"
     inkscape:connector-curvature="0" />
</svg>
